<svg width="512" height="512" viewBox="0 0 512 512" fill="none" xmlns="http://www.w3.org/2000/svg">
  <defs>
    <linearGradient id="bgA" x1="0" y1="0" x2="512" y2="512" gradientUnits="userSpaceOnUse">
      <stop offset="0" stop-color="#7c83ff"/>
      <stop offset="1" stop-color="#4f46e5"/>
    </linearGradient>
    <filter id="shadowA" x="-20%" y="-20%" width="140%" height="140%">
      <feDropShadow dx="0" dy="10" stdDeviation="14" flood-color="#1e1b4b" flood-opacity="0.30"/>
    </filter>
  </defs>

  <rect width="512" height="512" rx="116" fill="url(#bgA)"/>

  <g filter="url(#shadowA)">
    <!-- left page -->
    <path d="M256 176C214 150 158 142 116 150C108 151.5 102 158 102 166V336C102 344 108 350 116 348.5C158 341 214 348 256 372V176Z" fill="#ffffff"/>
    <!-- right page -->
    <path d="M256 176C298 150 354 142 396 150C404 151.5 410 158 410 166V336C410 344 404 350 396 348.5C354 341 298 348 256 372V176Z" fill="#eef0ff"/>
  </g>

  <!-- spine -->
  <rect x="251" y="176" width="10" height="196" rx="5" fill="#c7cbff"/>

  <!-- right page text lines -->
  <rect x="286" y="200" width="92" height="13" rx="6.5" fill="#c3c8f7"/>
  <rect x="286" y="228" width="80" height="13" rx="6.5" fill="#d6daf9"/>
  <rect x="286" y="256" width="92" height="13" rx="6.5" fill="#d6daf9"/>

  <!-- left page text lines, with one highlighted "saved" word -->
  <rect x="134" y="200" width="92" height="13" rx="6.5" fill="#4f46e5"/>
  <rect x="134" y="228" width="80" height="13" rx="6.5" fill="#cdd1f5"/>
  <rect x="134" y="256" width="92" height="13" rx="6.5" fill="#cdd1f5"/>
  <rect x="134" y="284" width="64" height="13" rx="6.5" fill="#cdd1f5"/>
</svg>
