<svg width="512" height="512" viewBox="0 0 512 512" fill="none" xmlns="http://www.w3.org/2000/svg">
  <defs>
    <linearGradient id="bgC" x1="0" y1="0" x2="512" y2="512" gradientUnits="userSpaceOnUse">
      <stop offset="0" stop-color="#6d6afc"/>
      <stop offset="1" stop-color="#4338ca"/>
    </linearGradient>
  </defs>

  <rect width="512" height="512" rx="116" fill="url(#bgC)"/>

  <!-- editorial dictionary letterform: Aa (Georgia Bold, outlined - font-independent) -->
  <path d="M296.82 322.64L296.82 333.69L187.36 333.69L187.36 322.64Q195 322.08 205.34 319.88Q215.68 317.69 215.68 314.43Q215.68 313.30 215.47 311.88Q215.25 310.46 214.26 308.06L197.13 266.43L127.74 266.43Q125.34 272.23 122.43 280.02Q119.53 287.81 117.41 293.90Q114.72 301.83 114.22 305.37Q113.73 308.91 113.73 310.32Q113.73 314.85 120.59 318.04Q127.46 321.23 143.46 322.64L143.46 333.69L61.05 333.69L61.05 322.64Q65.72 322.36 71.60 321.16Q77.48 319.95 80.87 317.83Q86.68 314.43 90.72 309.47Q94.75 304.52 97.44 297.72Q113.87 257.93 130.36 218Q146.86 178.07 166.83 129.92L195.15 129.92Q222.90 198.17 238.62 237.82Q254.34 277.47 265.38 303.53Q267.22 307.77 270.05 311.24Q272.89 314.71 278.13 317.83Q282.09 320.09 287.33 321.23Q292.57 322.36 296.82 322.64M133.41 252.41L191.32 252.41L162.15 179.63L133.41 252.41M450.95 320.38L450.95 330.71Q444.72 333.40 436.22 335.67Q427.73 337.94 418.24 337.94Q400.82 337.94 392.61 332.77Q384.40 327.60 381.42 317.97L380.57 317.97Q375.76 322.78 371.30 326.18Q366.84 329.58 361.74 331.99Q355.09 335.10 348.93 336.59Q342.77 338.08 331.72 338.08Q315.30 338.08 303.68 328.38Q292.07 318.68 292.07 302.68Q292.07 293.47 294.62 287.03Q297.17 280.59 301.84 275.63Q306.09 271.10 311.69 268.13Q317.28 265.15 323.93 262.60Q336.68 257.93 354.52 252.90Q372.36 247.88 380.57 243.91L380.57 230.32Q380.57 226.78 380.01 220.97Q379.44 215.17 377.60 211.20Q375.62 206.67 371.37 203.56Q367.12 200.44 360.18 200.44Q353.95 200.44 349.78 202.21Q345.60 203.98 343.05 205.82Q343.47 208.65 345.46 214.46Q347.44 220.26 347.44 225.65Q347.44 228.05 346.17 231.66Q344.89 235.27 342.48 237.40Q339.23 240.23 335.19 241.79Q331.16 243.35 322.80 243.35Q310.91 243.35 304.82 237.61Q298.73 231.88 298.73 222.67Q298.73 214.74 305.03 208.44Q311.33 202.14 320.39 198.03Q329.31 193.79 340.93 191.45Q352.54 189.11 362.45 189.11Q376.18 189.11 387.65 190.74Q399.12 192.37 408.33 197.47Q417.11 202.42 422.28 211.84Q427.44 221.26 427.44 236.41Q427.44 252.41 426.81 274.36Q426.17 296.30 426.17 303.24Q426.17 309.62 428.08 313.30Q429.99 316.98 433.96 318.82Q436.37 319.95 441.53 320.16Q446.70 320.38 450.95 320.38M380.01 304.94L380.57 256.94Q372.64 259.63 364.86 263.10Q357.07 266.57 352.11 270.39Q346.87 274.36 343.90 280.52Q340.93 286.68 340.93 295.03Q340.93 306.08 345.95 311.03Q350.98 315.99 358.34 315.99Q366.13 315.99 371.16 312.80Q376.18 309.62 380.01 304.94" fill="#ffffff"/>

  <!-- accent underline / definition marker -->
  <rect x="168" y="372" width="176" height="16" rx="8" fill="#a5b4fc"/>
</svg>
